<svg xmlns="http://www.w3.org/2000/svg" viewBox="0 0 22.51 22.51"><defs><style>.cls-1{fill:#fff;}.cls-2{fill:#87457f;}</style></defs><g id="Layer_2" data-name="Layer 2"><g id="Layer_1-2" data-name="Layer 1"><path class="cls-1" d="M11.26,0a10.78,10.78,0,0,1,2.19.22,10.28,10.28,0,0,1,2.11.64,11.05,11.05,0,0,1,2,1A11.43,11.43,0,0,1,20.61,5a10.76,10.76,0,0,1,1,2,11.19,11.19,0,0,1,.65,2.11,11.58,11.58,0,0,1,0,4.39,11,11,0,0,1-.65,2.11,10.43,10.43,0,0,1-1,2,11.43,11.43,0,0,1-3.1,3.1,10.43,10.43,0,0,1-2,1,11,11,0,0,1-2.11.65,11.58,11.58,0,0,1-4.39,0A11.19,11.19,0,0,1,7,21.65,11.11,11.11,0,0,1,3.3,19.21a10.82,10.82,0,0,1-1.4-1.7,11.05,11.05,0,0,1-1-2,10.28,10.28,0,0,1-.64-2.11,11.06,11.06,0,0,1,0-4.39A10.47,10.47,0,0,1,.86,7,11.42,11.42,0,0,1,1.9,5,11.43,11.43,0,0,1,5,1.9a11.42,11.42,0,0,1,2-1A10.47,10.47,0,0,1,9.06.22,10.8,10.8,0,0,1,11.26,0Z"/><path class="cls-2" d="M17.55,9.05l-6.91,6.89a.48.48,0,0,1-.67,0l-4.2-4.22a.48.48,0,0,1,0-.67l1-1a.48.48,0,0,1,.67,0l2.87,2.88,5.56-5.55a.46.46,0,0,1,.67,0l1,1A.48.48,0,0,1,17.55,9.05Z"/></g></g></svg>