<svg xmlns="http://www.w3.org/2000/svg" viewBox="0 0 190.36 38.53"><defs><style>.cls-1{fill:#e89e57;}</style></defs><g id="Layer_2" data-name="Layer 2"><g id="Layer_1-2" data-name="Layer 1"><path class="cls-1" d="M0,19.26c0-.63,0-1.26.09-1.88s.16-1.26.28-1.87.28-1.23.46-1.84a16.43,16.43,0,0,1,.64-1.78c.24-.58.51-1.15.8-1.71s.63-1.09,1-1.62S4,7.53,4.37,7s.83-1,1.27-1.4S6.56,4.77,7,4.37,8,3.6,8.56,3.25s1.07-.68,1.62-1,1.13-.56,1.71-.8A16.43,16.43,0,0,1,13.67.83c.61-.18,1.22-.34,1.84-.46S16.75.15,17.38.09,18.63,0,19.26,0H171.1c.63,0,1.26,0,1.88.09s1.26.16,1.87.28,1.23.28,1.84.46a16.43,16.43,0,0,1,1.78.64c.58.24,1.15.51,1.71.8s1.09.63,1.62,1,1,.72,1.52,1.12,1,.83,1.4,1.27.87.92,1.27,1.4.77,1,1.12,1.52.68,1.07,1,1.62.56,1.13.8,1.71a16.43,16.43,0,0,1,.64,1.78c.18.61.34,1.22.46,1.84s.22,1.24.28,1.87.09,1.25.09,1.88,0,1.26-.09,1.89S190.11,22.4,190,23s-.28,1.23-.46,1.84a17.23,17.23,0,0,1-.64,1.78c-.24.58-.51,1.15-.8,1.71s-.63,1.09-1,1.62-.72,1-1.12,1.52-.83.95-1.27,1.4-.91.87-1.4,1.27-1,.77-1.52,1.12-1.07.68-1.62,1-1.13.57-1.71.81a18.87,18.87,0,0,1-1.78.64c-.61.18-1.22.33-1.84.46s-1.24.21-1.87.28-1.25.09-1.88.09H19.26c-.63,0-1.26,0-1.88-.09s-1.26-.16-1.87-.28-1.23-.28-1.84-.46a18.87,18.87,0,0,1-1.78-.64q-.87-.36-1.71-.81c-.55-.29-1.09-.62-1.62-1s-1-.72-1.52-1.12-1-.83-1.4-1.27-.87-.92-1.27-1.4-.77-1-1.12-1.52-.68-1.07-1-1.62-.56-1.13-.8-1.71a17.23,17.23,0,0,1-.64-1.78C.65,24.25.49,23.64.37,23S.15,21.78.09,21.15,0,19.9,0,19.26Z"/></g></g></svg>