<svg xmlns="http://www.w3.org/2000/svg" viewBox="0 0 30.96 30.96"><defs><style>.cls-1{fill:#dee2ff;opacity:0.5;}.cls-2{fill:#87457f;}</style></defs><g id="Layer_2" data-name="Layer 2"><g id="Layer_1-2" data-name="Layer 1"><circle class="cls-1" cx="15.48" cy="15.48" r="15.48"/><path class="cls-2" d="M22.76,21.62a1.25,1.25,0,0,1-.39.72,1.17,1.17,0,0,1-1.68-.08l-3.12-3.13L17.48,19c-.39.2-.72.41-1.09.56A5.87,5.87,0,0,1,8.93,17a5.66,5.66,0,0,1-.71-3.27,5.89,5.89,0,0,1,5.17-5.4A5.77,5.77,0,0,1,16.85,9,5.93,5.93,0,0,1,19,11a5.84,5.84,0,0,1,.11,6.13c-.07.12-.07.18,0,.27l3,3a1.67,1.67,0,0,1,.55.89Zm-4.7-7.44a4,4,0,1,0-4,4A4,4,0,0,0,18.06,14.18Z"/></g></g></svg>