<svg xmlns="http://www.w3.org/2000/svg" viewBox="0 0 41.18 33.45"><defs><style>.cls-1{fill:#9ea4d9;}</style></defs><g id="Layer_2" data-name="Layer 2"><g id="Layer_1-2" data-name="Layer 1"><path class="cls-1" d="M24,32.11a1.6,1.6,0,0,1-.5-1.17V23.41H11.76a1.69,1.69,0,0,1-1.68-1.67v-10a1.61,1.61,0,0,1,.5-1.18,1.64,1.64,0,0,1,1.18-.5H23.53V2.51A1.63,1.63,0,0,1,24,1.33a1.67,1.67,0,0,1,2.36,0L40.68,15.55a1.63,1.63,0,0,1,0,2.35L26.39,32.11a1.64,1.64,0,0,1-2.36,0ZM7.56,33.45a7.31,7.31,0,0,1-5.34-2.21A7.24,7.24,0,0,1,0,25.92V7.53A7.22,7.22,0,0,1,2.22,2.21,7.31,7.31,0,0,1,7.56,0H16a.81.81,0,0,1,.59.25.82.82,0,0,1,.25.59c0,.07,0,.24,0,.52s0,.51,0,.69a5.13,5.13,0,0,1-.08.61.84.84,0,0,1-.27.51.75.75,0,0,1-.53.17H7.56a4,4,0,0,0-3,1.23,4,4,0,0,0-1.24,3V25.92A4,4,0,0,0,4.6,28.87a4,4,0,0,0,3,1.23h8.2l.3,0c.2,0,.3,0,.3.08s.07.08.21.14.2.14.18.23a.71.71,0,0,0,.06.36c0,.07,0,.24,0,.52s0,.51,0,.69a5.28,5.28,0,0,1-.08.62,1,1,0,0,1-.26.51.85.85,0,0,1-.54.17Z"/></g></g></svg>