<svg xmlns="http://www.w3.org/2000/svg" viewBox="0 0 296.89 47.17"><defs><style>.cls-1{fill:#fff;}.cls-2{fill:#dee2ff;opacity:0.5;}.cls-3{fill:#87457f;}</style></defs><g id="Layer_2" data-name="Layer 2"><g id="Layer_1-2" data-name="Layer 1"><rect class="cls-1" x="124.86" y="-124.86" width="47.17" height="296.89" rx="17.41" transform="translate(124.86 172.03) rotate(-90)"/><circle class="cls-2" cx="26.48" cy="23.58" r="15.48"/><path class="cls-3" d="M33.76,29.72a1.26,1.26,0,0,1-.38.73,1.17,1.17,0,0,1-1.68-.09l-3.13-3.12a1.23,1.23,0,0,1-.08-.12c-.39.2-.73.41-1.09.57a5.88,5.88,0,0,1-6.49-9.54,5.72,5.72,0,0,1,3.49-1.71A5.89,5.89,0,0,1,30,19.12a5.86,5.86,0,0,1,.11,6.14.19.19,0,0,0,0,.27c1,1,2,2,3,3a1.65,1.65,0,0,1,.54.89Zm-4.7-7.43a4,4,0,1,0-4,4A4,4,0,0,0,29.06,22.29Z"/></g></g></svg>