<svg xmlns="http://www.w3.org/2000/svg" viewBox="0 0 44 44"><defs><style>.cls-1{fill:#dee2ff;}.cls-2{fill:#87457f;}.cls-3{fill:none;stroke:#dee2ff;stroke-linejoin:round;}</style></defs><g id="Layer_2" data-name="Layer 2"><g id="Layer_1-2" data-name="Layer 1"><path class="cls-1" d="M22,0c.72,0,1.44,0,2.16.11s1.43.17,2.13.31a21.5,21.5,0,0,1,2.1.53c.69.21,1.36.45,2,.72s1.32.59,1.95.93a21.55,21.55,0,0,1,1.85,1.11c.6.4,1.18.83,1.74,1.28s1.09.94,1.6,1.45,1,1,1.45,1.6.88,1.14,1.28,1.74a21.55,21.55,0,0,1,1.11,1.85c.34.63.65,1.29.93,1.95s.51,1.34.72,2a21.5,21.5,0,0,1,.53,2.1c.14.7.24,1.42.31,2.13S44,21.28,44,22s0,1.44-.11,2.16-.17,1.43-.31,2.13a21.5,21.5,0,0,1-.53,2.1c-.21.69-.45,1.36-.72,2s-.59,1.32-.93,1.95a21.55,21.55,0,0,1-1.11,1.85c-.4.6-.83,1.18-1.28,1.74s-.94,1.09-1.45,1.6-1.05,1-1.6,1.45-1.14.88-1.74,1.28a21.55,21.55,0,0,1-1.85,1.11c-.63.34-1.29.65-1.95.93s-1.34.51-2,.72a21.5,21.5,0,0,1-2.1.53c-.7.14-1.42.24-2.13.31S22.72,44,22,44s-1.44,0-2.16-.11-1.43-.17-2.13-.31a21.5,21.5,0,0,1-2.1-.53c-.69-.21-1.36-.45-2-.72s-1.32-.59-1.95-.93a21.55,21.55,0,0,1-1.85-1.11C9.18,39.89,8.6,39.46,8,39S7,38.07,6.44,37.56,5.45,36.51,5,36s-.88-1.14-1.28-1.74A21.55,21.55,0,0,1,2.6,32.37c-.34-.63-.65-1.29-.93-1.95s-.51-1.34-.72-2a21.5,21.5,0,0,1-.53-2.1c-.14-.7-.24-1.42-.31-2.13S0,22.72,0,22s0-1.44.11-2.16.17-1.43.31-2.13A21.5,21.5,0,0,1,1,15.61c.21-.69.45-1.36.72-2s.59-1.32.93-1.95A21.55,21.55,0,0,1,3.71,9.78C4.11,9.18,4.54,8.6,5,8S5.93,7,6.44,6.44s1-1,1.6-1.45,1.14-.88,1.74-1.28A21.55,21.55,0,0,1,11.63,2.6c.63-.34,1.29-.65,1.95-.93s1.34-.51,2-.72a21.5,21.5,0,0,1,2.1-.53c.7-.14,1.42-.24,2.13-.31S21.28,0,22,0Z"/><path class="cls-2" d="M23.46,22l-6.93-6.25a1.53,1.53,0,0,1,0-2.32l1.07-1a2,2,0,0,1,2.58,0l9.29,8.36a1.53,1.53,0,0,1,0,2.32l-9.29,8.36a2,2,0,0,1-2.58,0l-1.07-1a1.53,1.53,0,0,1,0-2.32Z"/><path class="cls-3" d="M23.46,22l-6.93-6.25a1.53,1.53,0,0,1,0-2.32l1.07-1a2,2,0,0,1,2.58,0l9.29,8.36a1.53,1.53,0,0,1,0,2.32l-9.29,8.36a2,2,0,0,1-2.58,0l-1.07-1a1.53,1.53,0,0,1,0-2.32Z"/></g></g></svg>