<svg xmlns="http://www.w3.org/2000/svg" viewBox="0 0 169.72 73.16"><defs><style>.cls-1{fill:#e89e57;}.cls-2{fill:#81302f;}.cls-3{fill:#87457f;}.cls-4{fill:#59bcc6;}.cls-5{fill:#537a45;}</style></defs><g id="Layer_2" data-name="Layer 2"><g id="Layer_1-2" data-name="Layer 1"><path class="cls-1" d="M90.89,16.17c-2.28-1.45-2.1-3.31.34-5.9C95.64,5.28,88-1.2,82.76.19a6.85,6.85,0,0,0-5.6,7.9,7.34,7.34,0,0,0,.44,1.52c1.51,2.41,2,4.5.17,5.19H59.92a1.5,1.5,0,0,0-1.5,1.5h0V35.8c-.06.4-.11.8-.19,1.19-.77,4.27-2.87,5-6.36,2.57a4.19,4.19,0,0,0-.49-.29l2,5.6c.32,4-1.49,5.19-5.43,3.91a4.27,4.27,0,0,0-4.54.94,6.81,6.81,0,0,0,8.7,4.1,6.59,6.59,0,0,0,1.41-.69c.8-.5,1.5-1.11,2.28-1.63a1.79,1.79,0,0,1,2.52.18.52.52,0,0,1,.1.11v7.72a7.37,7.37,0,0,1,.48.87l3.83,10.73a1.52,1.52,0,0,1-.91,2,2,2,0,0,1-.48.09H82.13a24.88,24.88,0,0,0,18-7,4.33,4.33,0,0,1-5.11.29,8.62,8.62,0,0,1-3.87-9.7,8.64,8.64,0,0,1,1.1-9.83,6.83,6.83,0,0,1,9.61-.79A6.71,6.71,0,0,1,103,47.33c.55.75,1,1.59,1.53,2.34a1.9,1.9,0,0,0,2.14.89V32C103.92,24.8,98.69,18.76,90.89,16.17ZM80.08,55.94a1.51,1.51,0,0,1-1.47-1.54V33.53A1.49,1.49,0,0,1,80.08,32c5,0,7.48,5.91,7.48,11.84S85.06,55.94,80.08,55.94Z"/><path class="cls-2" d="M108.47,47.61a4.2,4.2,0,0,1-.93,2.21h0a2.25,2.25,0,0,1-1,.69V32A35.27,35.27,0,0,1,108.47,47.61Z"/><path class="cls-2" d="M101.46,64.08h0a2.87,2.87,0,0,1-.73,1.4l-.64.66h0a4.31,4.31,0,0,1-5.1.29,8.61,8.61,0,0,1-3.87-9.7c.17.29.35.58.54.85a4.3,4.3,0,0,0,4.8,1.77C100.59,58.41,102.28,59.83,101.46,64.08Z"/><path class="cls-3" d="M154.41,48.46a8.66,8.66,0,0,0,3.64,10.08,4.31,4.31,0,0,0,5.11-.23c3.61-2.62,5.76-1.78,6.56,3v10.3a1.51,1.51,0,0,1-1.5,1.5H151a1.52,1.52,0,0,1-1.49-1.5V62.36A1.49,1.49,0,0,0,148,60.88a1.47,1.47,0,0,0-1.34.86L142.28,72a1.88,1.88,0,0,1-1.73,1.1h-4.72a1.88,1.88,0,0,1-1.72-1.06L129.7,61.77a1.5,1.5,0,0,0-2.87.63v9.28a1.51,1.51,0,0,1-1.54,1.47H108.08a1.52,1.52,0,0,1-1.54-1.49h0V68.53h0c-.94-4.29-3.06-4.93-6.48-2.37l.64-.65a2.91,2.91,0,0,0,.73-1.4h0c.81-4.26-.87-5.68-5-4.71a4.31,4.31,0,0,1-4.79-1.78,6.79,6.79,0,0,1-.54-.85,1.47,1.47,0,0,1,.08-.3,6.82,6.82,0,0,1,8.49-4.58,6.91,6.91,0,0,1,1.5.66c.81.46,1.54,1.1,2.35,1.52A1.8,1.8,0,0,0,106,53.8a1.84,1.84,0,0,0,.37-.83,5.36,5.36,0,0,0,.14-.54V50.56a2.23,2.23,0,0,0,.95-.7h0a4.18,4.18,0,0,0,.94-2.2A35.19,35.19,0,0,0,106.54,32V16.28A1.5,1.5,0,0,1,108,14.77h17.81a1.48,1.48,0,0,1,1.34.82l9.6,19.32a1.5,1.5,0,0,0,2,.67,1.55,1.55,0,0,0,.67-.67l9.67-19.32a1.48,1.48,0,0,1,1.34-.82h17.75a1.5,1.5,0,0,1,1.5,1.5h0V45.23a1.82,1.82,0,0,1-2.92,1c-.81-.48-1.52-1.11-2.33-1.57a6.81,6.81,0,0,0-9.37,2.24A6.71,6.71,0,0,0,154.41,48.46Z"/><path class="cls-4" d="M58.42,71.65V59.52l-.24-.35a1.81,1.81,0,0,0-2.45-.7,1.87,1.87,0,0,0-.64.61c-.63.69-1.1,1.5-1.74,2.2a6.83,6.83,0,0,1-9.63.69,6.7,6.7,0,0,1-1.08-1.18A8.61,8.61,0,0,1,43,50.12a5.33,5.33,0,0,1,.4-.42v-.07a8.64,8.64,0,0,1,3.31-10.18,4.27,4.27,0,0,1,4.64-.21L43,15.81a1.49,1.49,0,0,0-1.4-1h-19a1.49,1.49,0,0,0-1.4,1l-1.95,5.52c-.28.5-.56,1-.86,1.47-2.21,3.7-4.41,3.61-6.86.1A4.34,4.34,0,0,0,6.8,21,8.6,8.6,0,0,0,0,29.2a6.85,6.85,0,0,0,6.61,7.06,7.13,7.13,0,0,0,1.59-.14c.91-.18,1.79-.53,2.72-.69,1.47-.28,2.45.46,2.39,2a7.3,7.3,0,0,1-.08.93L1.51,71.14a1.53,1.53,0,0,0,1.39,2H21.77a1.51,1.51,0,0,0,1.43-1.1L24,69.5a1.49,1.49,0,0,1,1.44-1.1H38.76a1.5,1.5,0,0,1,1.44,1.1l.74,2.55a1.52,1.52,0,0,0,1.45,1.1H59.92A1.51,1.51,0,0,1,58.42,71.65ZM34.71,49.85H29.5a3,3,0,0,1-2.71-3.18,2.56,2.56,0,0,1,.13-.67l2.58-9.84a2.63,2.63,0,0,1,5.17,0L37.3,46a3,3,0,0,1-1.92,3.71A3.05,3.05,0,0,1,34.71,49.85Z"/><path class="cls-5" d="M61.34,73.15H60a1.51,1.51,0,0,1-1.5-1.51V59.51a9.25,9.25,0,0,1,.49.87l3.82,10.73a1.52,1.52,0,0,1-.91,2A1.48,1.48,0,0,1,61.34,73.15Z"/><path class="cls-5" d="M48,48.78a4.27,4.27,0,0,0-4.54.94v-.07a8.62,8.62,0,0,1,3.31-10.17,4.23,4.23,0,0,1,4.64-.21h0l2,5.6C53.7,48.89,51.89,50.06,48,48.78Z"/></g></g></svg>