<svg xmlns="http://www.w3.org/2000/svg" viewBox="0 0 48.89 48.89"><defs><style>.cls-1{fill:#fff;}.cls-2{fill:#9ea4d9;}</style></defs><g id="Layer_2" data-name="Layer 2"><g id="Layer_1-2" data-name="Layer 1"><path class="cls-1" d="M24.44,48.89a24.57,24.57,0,0,0,4.77-.47A24.31,24.31,0,0,0,33.8,47,24.52,24.52,0,0,0,47,33.8a24.31,24.31,0,0,0,1.39-4.59,24.39,24.39,0,0,0,0-9.53A24.31,24.31,0,0,0,47,15.09a25.27,25.27,0,0,0-2.26-4.23,24.53,24.53,0,0,0-3-3.7,24.64,24.64,0,0,0-7.93-5.3A24.31,24.31,0,0,0,29.21.47a24.39,24.39,0,0,0-9.53,0,24.31,24.31,0,0,0-4.59,1.39,24.56,24.56,0,0,0-4.23,2.26,24.57,24.57,0,0,0-6.74,6.74,24.56,24.56,0,0,0-2.26,4.23A24.52,24.52,0,0,0,0,24.44a24.57,24.57,0,0,0,.47,4.77A24.28,24.28,0,0,0,4.12,38a24,24,0,0,0,3,3.71,24.53,24.53,0,0,0,3.7,3A25.27,25.27,0,0,0,15.09,47a24.52,24.52,0,0,0,9.35,1.86Z"/><path class="cls-2" d="M23.93,24.45l7.78-7.63a2,2,0,0,0,0-2.84l-1.2-1.18a2.1,2.1,0,0,0-2.9,0L17.18,23a1.89,1.89,0,0,0-.59,1.42,1.92,1.92,0,0,0,.59,1.43L27.61,36.08a2.1,2.1,0,0,0,2.9,0l1.2-1.17a2,2,0,0,0,0-2.84Z"/></g></g></svg>