<svg xmlns="http://www.w3.org/2000/svg" viewBox="0 0 14.56 14.36"><defs><style>.cls-1{fill:#87457f;}</style></defs><g id="Layer_2" data-name="Layer 2"><g id="Layer_1-2" data-name="Layer 1"><path class="cls-1" d="M14.56,13.32a1.33,1.33,0,0,1-.38.73A1.18,1.18,0,0,1,12.49,14L9.37,10.83a.33.33,0,0,1-.08-.11c-.39.2-.73.41-1.1.56a5.69,5.69,0,0,1-4.76-.06A5.72,5.72,0,0,1,.73,8.71,5.64,5.64,0,0,1,0,5.44,5.75,5.75,0,0,1,1.7,1.75,5.74,5.74,0,0,1,5.19,0,5.7,5.7,0,0,1,8.65.7a5.82,5.82,0,0,1,2.19,2,5.75,5.75,0,0,1,.92,2.93A5.69,5.69,0,0,1,11,8.85c-.07.12-.07.18,0,.28l3,3a1.67,1.67,0,0,1,.55.89ZM9.86,5.88a4,4,0,1,0-4,4A4,4,0,0,0,9.86,5.88Z"/></g></g></svg>