<svg xmlns="http://www.w3.org/2000/svg" xmlns:xlink="http://www.w3.org/1999/xlink" viewBox="0 0 59.18 70.86"><defs><style>.cls-1,.cls-4,.cls-8{fill:none;}.cls-2{isolation:isolate;opacity:0.09;}.cls-3{clip-path:url(#clip-path);}.cls-4{stroke:#4500ff;}.cls-4,.cls-8{stroke-linejoin:round;}.cls-5{fill:#cfd4e4;}.cls-6{clip-path:url(#clip-path-2);}.cls-7{fill:#fafdff;}.cls-8{stroke:#fff;stroke-width:2px;}</style><clipPath id="clip-path" transform="translate(0.21 0.21)"><rect class="cls-1" width="58.75" height="58.75"/></clipPath><clipPath id="clip-path-2" transform="translate(0.21 0.21)"><path class="cls-1" d="M29.38,5.76c-.78,0-1.55,0-2.32.11s-1.53.19-2.29.34a21.79,21.79,0,0,0-2.25.57,20.93,20.93,0,0,0-2.18.78,21.12,21.12,0,0,0-2.1,1,22.08,22.08,0,0,0-2,1.19,23.25,23.25,0,0,0-6.52,6.52,22.08,22.08,0,0,0-1.19,2,21.12,21.12,0,0,0-1,2.1,20.93,20.93,0,0,0-.78,2.18,21.79,21.79,0,0,0-.57,2.25c-.15.76-.26,1.52-.34,2.29s-.11,1.54-.11,2.32,0,1.54.11,2.31.19,1.54.34,2.29a21.79,21.79,0,0,0,.57,2.25,20.93,20.93,0,0,0,.78,2.18,20.11,20.11,0,0,0,1,2.1c.36.68.76,1.34,1.19,2s.89,1.26,1.38,1.86a23,23,0,0,0,1.56,1.72c.54.54,1.12,1.06,1.71,1.55A23.11,23.11,0,0,0,16.26,49a22.08,22.08,0,0,0,2,1.19c.69.37,1.38.7,2.1,1s1.44.55,2.18.78,1.49.41,2.25.56,1.52.26,2.29.34a24.42,24.42,0,0,0,4.63,0c.77-.08,1.54-.19,2.29-.34s1.51-.34,2.25-.56,1.47-.49,2.18-.78a22.45,22.45,0,0,0,2.1-1c.68-.36,1.34-.76,2-1.19s1.26-.89,1.86-1.38,1.17-1,1.72-1.55,1.06-1.12,1.55-1.72.95-1.22,1.38-1.86.83-1.31,1.19-2a22.45,22.45,0,0,0,1-2.1c.29-.71.55-1.44.78-2.18s.41-1.49.56-2.25.26-1.52.34-2.29a24.42,24.42,0,0,0,0-4.63c-.08-.77-.19-1.53-.34-2.29s-.34-1.51-.56-2.25-.49-1.47-.78-2.18-.63-1.41-1-2.1a22.08,22.08,0,0,0-1.19-2,23.11,23.11,0,0,0-1.38-1.87c-.49-.59-1-1.17-1.55-1.71a23,23,0,0,0-1.72-1.56q-.9-.73-1.86-1.38c-.65-.43-1.31-.83-2-1.19a20.11,20.11,0,0,0-2.1-1,20.93,20.93,0,0,0-2.18-.78A21.79,21.79,0,0,0,34,6.21c-.75-.15-1.52-.26-2.29-.34S30.15,5.76,29.38,5.76Z"/></clipPath></defs><g id="Layer_2" data-name="Layer 2"><g id="Layer_1-2" data-name="Layer 1"><g class="cls-2"><g class="cls-3"><path class="cls-4" d="M29.38.29a26.93,26.93,0,0,0-2.85.14A27.2,27.2,0,0,0,23.7.85a26.68,26.68,0,0,0-2.77.69c-.91.28-1.8.6-2.68,1s-1.75.77-2.59,1.22S14,4.66,13.22,5.19s-1.56,1.1-2.3,1.7S9.48,8.13,8.81,8.81,7.5,10.19,6.89,10.92s-1.17,1.5-1.7,2.3-1,1.6-1.47,2.44-.85,1.7-1.22,2.59-.68,1.77-1,2.68A26.68,26.68,0,0,0,.85,23.7a27.2,27.2,0,0,0-.42,2.83,29.08,29.08,0,0,0,0,5.7,26.62,26.62,0,0,0,.42,2.82,26.07,26.07,0,0,0,.69,2.77c.28.91.6,1.81,1,2.69s.77,1.74,1.22,2.58.94,1.66,1.47,2.45,1.1,1.55,1.7,2.29S8.13,49.27,8.81,50s1.38,1.31,2.11,1.91a27.29,27.29,0,0,0,2.3,1.7c.79.53,1.6,1,2.44,1.47a26.62,26.62,0,0,0,2.59,1.22,25.93,25.93,0,0,0,2.68,1c.91.28,1.84.51,2.77.7s1.88.32,2.83.42,1.89.14,2.85.14,1.9,0,2.85-.14,1.89-.24,2.82-.42,1.86-.42,2.77-.7a26.1,26.1,0,0,0,2.69-1A27.59,27.59,0,0,0,43.09,55c.84-.45,1.66-.94,2.45-1.47s1.55-1.09,2.29-1.7S49.27,50.62,50,50s1.31-1.38,1.91-2.12,1.17-1.5,1.7-2.29,1-1.61,1.47-2.45a27.59,27.59,0,0,0,1.22-2.58,26.1,26.1,0,0,0,1-2.69c.28-.91.51-1.83.7-2.77s.32-1.87.42-2.82.14-1.9.14-2.85,0-1.91-.14-2.85-.24-1.89-.42-2.83-.42-1.86-.7-2.77a25.93,25.93,0,0,0-1-2.68A26.62,26.62,0,0,0,55,15.66c-.45-.84-.94-1.65-1.47-2.44a27.29,27.29,0,0,0-1.7-2.3c-.6-.73-1.24-1.44-1.91-2.11S48.57,7.5,47.83,6.89s-1.5-1.17-2.29-1.7-1.61-1-2.45-1.47-1.7-.85-2.58-1.22-1.78-.68-2.69-1A26.07,26.07,0,0,0,35.05.85,26.62,26.62,0,0,0,32.23.43,27.19,27.19,0,0,0,29.38.29Z" transform="translate(0.21 0.21)"/></g></g><path class="cls-5" d="M29.38,5.76c-.78,0-1.55,0-2.32.11s-1.53.19-2.29.34a21.79,21.79,0,0,0-2.25.57,20.93,20.93,0,0,0-2.18.78,21.12,21.12,0,0,0-2.1,1,22.08,22.08,0,0,0-2,1.19,23.25,23.25,0,0,0-6.52,6.52,22.08,22.08,0,0,0-1.19,2,21.12,21.12,0,0,0-1,2.1,20.93,20.93,0,0,0-.78,2.18,21.79,21.79,0,0,0-.57,2.25c-.15.76-.26,1.52-.34,2.29s-.11,1.54-.11,2.32,0,1.54.11,2.31.19,1.54.34,2.29a21.79,21.79,0,0,0,.57,2.25,20.93,20.93,0,0,0,.78,2.18,20.11,20.11,0,0,0,1,2.1c.36.68.76,1.34,1.19,2s.89,1.26,1.38,1.86a23,23,0,0,0,1.56,1.72c.54.54,1.12,1.06,1.71,1.55A23.11,23.11,0,0,0,16.26,49a22.08,22.08,0,0,0,2,1.19c.69.37,1.38.7,2.1,1s1.44.55,2.18.78,1.49.41,2.25.56,1.52.26,2.29.34a24.42,24.42,0,0,0,4.63,0c.77-.08,1.54-.19,2.29-.34s1.51-.34,2.25-.56,1.47-.49,2.18-.78a22.45,22.45,0,0,0,2.1-1c.68-.36,1.34-.76,2-1.19s1.26-.89,1.86-1.38,1.17-1,1.72-1.55,1.06-1.12,1.55-1.72.95-1.22,1.38-1.86.83-1.31,1.19-2a22.45,22.45,0,0,0,1-2.1c.29-.71.55-1.44.78-2.18s.41-1.49.56-2.25.26-1.52.34-2.29a24.42,24.42,0,0,0,0-4.63c-.08-.77-.19-1.53-.34-2.29s-.34-1.51-.56-2.25-.49-1.47-.78-2.18-.63-1.41-1-2.1a22.08,22.08,0,0,0-1.19-2,23.11,23.11,0,0,0-1.38-1.87c-.49-.59-1-1.17-1.55-1.71a23,23,0,0,0-1.72-1.56q-.9-.73-1.86-1.38c-.65-.43-1.31-.83-2-1.19a20.11,20.11,0,0,0-2.1-1,20.93,20.93,0,0,0-2.18-.78A21.79,21.79,0,0,0,34,6.21c-.75-.15-1.52-.26-2.29-.34S30.15,5.76,29.38,5.76Z" transform="translate(0.21 0.21)"/><g class="cls-6"><circle class="cls-7" cx="29.59" cy="23.8" r="10.13"/><circle class="cls-7" cx="29.59" cy="53.09" r="17.77"/></g><path class="cls-8" d="M29.38,5.76c-.78,0-1.55,0-2.32.11s-1.53.19-2.29.34a21.79,21.79,0,0,0-2.25.57,20.93,20.93,0,0,0-2.18.78,21.12,21.12,0,0,0-2.1,1,22.08,22.08,0,0,0-2,1.19,23.25,23.25,0,0,0-6.52,6.52,22.08,22.08,0,0,0-1.19,2,21.12,21.12,0,0,0-1,2.1,20.93,20.93,0,0,0-.78,2.18,21.79,21.79,0,0,0-.57,2.25c-.15.76-.26,1.52-.34,2.29s-.11,1.54-.11,2.32,0,1.54.11,2.31.19,1.54.34,2.29a21.79,21.79,0,0,0,.57,2.25,20.93,20.93,0,0,0,.78,2.18,20.11,20.11,0,0,0,1,2.1c.36.68.76,1.34,1.19,2s.89,1.26,1.38,1.86a23,23,0,0,0,1.56,1.72c.54.54,1.12,1.06,1.71,1.55A23.11,23.11,0,0,0,16.26,49a22.08,22.08,0,0,0,2,1.19c.69.37,1.38.7,2.1,1s1.44.55,2.18.78,1.49.41,2.25.56,1.52.26,2.29.34a24.42,24.42,0,0,0,4.63,0c.77-.08,1.54-.19,2.29-.34s1.51-.34,2.25-.56,1.47-.49,2.18-.78a22.45,22.45,0,0,0,2.1-1c.68-.36,1.34-.76,2-1.19s1.26-.89,1.86-1.38,1.17-1,1.72-1.55,1.06-1.12,1.55-1.72.95-1.22,1.38-1.86.83-1.31,1.19-2a22.45,22.45,0,0,0,1-2.1c.29-.71.55-1.44.78-2.18s.41-1.49.56-2.25.26-1.52.34-2.29a24.42,24.42,0,0,0,0-4.63c-.08-.77-.19-1.53-.34-2.29s-.34-1.51-.56-2.25-.49-1.47-.78-2.18-.63-1.41-1-2.1a22.08,22.08,0,0,0-1.19-2,23.11,23.11,0,0,0-1.38-1.87c-.49-.59-1-1.17-1.55-1.71a23,23,0,0,0-1.72-1.56q-.9-.73-1.86-1.38c-.65-.43-1.31-.83-2-1.19a20.11,20.11,0,0,0-2.1-1,20.93,20.93,0,0,0-2.18-.78A21.79,21.79,0,0,0,34,6.21c-.75-.15-1.52-.26-2.29-.34S30.15,5.76,29.38,5.76Z" transform="translate(0.21 0.21)"/></g></g></svg>