<svg xmlns="http://www.w3.org/2000/svg" viewBox="0 0 34.67 34.67"><defs><style>.cls-1{fill:#e89e57;}</style></defs><g id="Layer_2" data-name="Layer 2"><g id="Layer_1-2" data-name="Layer 1"><path class="cls-1" d="M1.87,15.47A1.87,1.87,0,0,1,0,13.61V1.86A1.87,1.87,0,0,1,1.87,0H13.66a1.86,1.86,0,0,1,1.86,1.86V13.61a1.86,1.86,0,0,1-1.86,1.86Zm19.14,0a1.87,1.87,0,0,1-1.87-1.86V1.86A1.87,1.87,0,0,1,21,0H32.8a1.87,1.87,0,0,1,1.87,1.86V13.61a1.87,1.87,0,0,1-1.87,1.86ZM1.87,34.67A1.87,1.87,0,0,1,0,32.8V21.06a1.87,1.87,0,0,1,1.87-1.87H13.66a1.87,1.87,0,0,1,1.86,1.87V32.8a1.87,1.87,0,0,1-1.86,1.87Zm19.14,0a1.87,1.87,0,0,1-1.87-1.87V21.06A1.87,1.87,0,0,1,21,19.19H32.8a1.87,1.87,0,0,1,1.87,1.87V32.8a1.87,1.87,0,0,1-1.87,1.87Z"/></g></g></svg>