<svg xmlns="http://www.w3.org/2000/svg" viewBox="0 0 112.56 35.38"><defs><style>.cls-1{fill:#dee2ff;opacity:0.5;}.cls-2{fill:#fff;}.cls-3{fill:#87457f;}</style></defs><g id="Layer_2" data-name="Layer 2"><g id="Layer_1-2" data-name="Layer 1"><path class="cls-1" d="M0,17.69a18.57,18.57,0,0,1,.34-3.45,16.68,16.68,0,0,1,.42-1.69,15.85,15.85,0,0,1,.59-1.63A17.72,17.72,0,0,1,3,7.86c.32-.48.67-1,1-1.39s.76-.88,1.17-1.29S6,4.38,6.47,4s.91-.71,1.39-1a17.72,17.72,0,0,1,3.06-1.63A15.85,15.85,0,0,1,12.55.76,17.63,17.63,0,0,1,16,.09,16.9,16.9,0,0,1,17.69,0H94.87a18.57,18.57,0,0,1,3.45.34,16.76,16.76,0,0,1,3.32,1A17.72,17.72,0,0,1,104.7,3c.48.32.94.67,1.39,1s.88.76,1.29,1.17a15.71,15.71,0,0,1,1.16,1.29,15.71,15.71,0,0,1,1,1.39,17.72,17.72,0,0,1,1.63,3.06c.22.53.42,1.08.59,1.63a17.63,17.63,0,0,1,.67,3.4,16.9,16.9,0,0,1,.09,1.74,16.71,16.71,0,0,1-.09,1.73,16.57,16.57,0,0,1-.25,1.72,15.86,15.86,0,0,1-.42,1.68c-.17.56-.37,1.1-.59,1.64s-.47,1.05-.74,1.57a17.06,17.06,0,0,1-.89,1.48,15.86,15.86,0,0,1-1,1.4,15.71,15.71,0,0,1-1.16,1.29c-.41.4-.84.79-1.29,1.16A17.37,17.37,0,0,1,101.64,34a16.67,16.67,0,0,1-1.63.58c-.56.17-1.12.31-1.69.43s-1.14.19-1.71.25a16.9,16.9,0,0,1-1.74.09H17.69A16.9,16.9,0,0,1,16,35.29c-.57-.06-1.14-.14-1.71-.25s-1.13-.26-1.69-.43A15.79,15.79,0,0,1,10.92,34a16.9,16.9,0,0,1-3.06-1.64,15.6,15.6,0,0,1-1.39-1C6,31,5.59,30.6,5.18,30.2s-.8-.84-1.17-1.29S3.3,28,3,27.51A17.06,17.06,0,0,1,2.09,26c-.27-.52-.52-1-.74-1.57a16,16,0,0,1-.59-1.64,15.86,15.86,0,0,1-.42-1.68,16.57,16.57,0,0,1-.25-1.72A16.71,16.71,0,0,1,0,17.69Z"/><path class="cls-2" d="M17.69,6.43a10.71,10.71,0,0,1,2.19.22A11.26,11.26,0,0,1,22,7.29a11,11,0,0,1,1.94,1,11.28,11.28,0,0,1,3.11,3.1,12.16,12.16,0,0,1,1,2,11.94,11.94,0,0,1,.64,2.11,11.63,11.63,0,0,1,.21,2.2,11.45,11.45,0,0,1-.21,2.19A12,12,0,0,1,28.09,22a11.66,11.66,0,0,1-1,1.94,11.14,11.14,0,0,1-3.11,3.11,11.66,11.66,0,0,1-1.94,1,12,12,0,0,1-2.12.64,11.45,11.45,0,0,1-2.19.21,11.63,11.63,0,0,1-2.2-.21,11.94,11.94,0,0,1-2.11-.64,12.16,12.16,0,0,1-2-1,11.28,11.28,0,0,1-3.1-3.11,11,11,0,0,1-1-1.94,11.26,11.26,0,0,1-.64-2.12,10.71,10.71,0,0,1-.22-2.19,10.87,10.87,0,0,1,.22-2.2,11.16,11.16,0,0,1,.64-2.11,11.21,11.21,0,0,1,6.09-6.09,11.16,11.16,0,0,1,2.11-.64A10.87,10.87,0,0,1,17.69,6.43Z"/><path class="cls-3" d="M24,15.48l-6.91,6.89a.48.48,0,0,1-.67,0l-4.2-4.22a.48.48,0,0,1,0-.67l1-1a.48.48,0,0,1,.67,0l2.87,2.88,5.56-5.55a.48.48,0,0,1,.67,0l1,1A.48.48,0,0,1,24,15.48Z"/></g></g></svg>