<svg xmlns="http://www.w3.org/2000/svg" viewBox="0 0 34.67 37.81"><defs><style>.cls-1{fill:#e89e57;}</style></defs><g id="Layer_2" data-name="Layer 2"><g id="Layer_1-2" data-name="Layer 1"><path class="cls-1" d="M34.09,0a1,1,0,0,1,.58,1.05A31.88,31.88,0,0,1,33,10.58a1.26,1.26,0,0,1-.59.71L27.87,13.9a1.08,1.08,0,0,0-.34.28h2.66a.8.8,0,0,1,.75,1.26A30.5,30.5,0,0,1,20.7,26.52,30.29,30.29,0,0,1,8.05,31.21c-1,.13-2,.18-3,.25a.5.5,0,0,0-.47.27,42.74,42.74,0,0,0-3,5.39,1.6,1.6,0,0,1-.26.44.75.75,0,0,1-1,.12.76.76,0,0,1-.3-1c.35-.77.72-1.53,1.1-2.29A53.7,53.7,0,0,1,8.87,23.5c1.75-1.95,3.57-3.83,5.36-5.75a1.6,1.6,0,0,0,.35-.51.76.76,0,0,0-.33-.9.78.78,0,0,0-1,.16c-1,1.05-2,2.08-3,3.15a81.11,81.11,0,0,0-6.79,8.12s0,.05-.14.17c0-.33.05-.56.08-.79s.05-.47.08-.7A30.82,30.82,0,0,1,23.89,1.67,29.94,29.94,0,0,1,32,.06,1.8,1.8,0,0,0,32.32,0Z"/></g></g></svg>