<svg xmlns="http://www.w3.org/2000/svg" viewBox="0 0 32.55 39.01"><defs><style>.cls-1{fill:#e89e57;}</style></defs><g id="Layer_2" data-name="Layer 2"><g id="Layer_1-2" data-name="Layer 1"><circle class="cls-1" cx="16.28" cy="10" r="10"/><path class="cls-1" d="M32.55,32.38a19,19,0,0,1-1.49,1.34c-.59.49-1.21.94-1.84,1.37s-1.29.81-2,1.17a21.77,21.77,0,0,1-2.07,1c-.7.29-1.42.55-2.15.77s-1.47.41-2.22.56-1.5.26-2.26.33S17,39,16.28,39,14.75,39,14,38.9s-1.51-.19-2.26-.33-1.49-.34-2.22-.56-1.45-.48-2.15-.77-1.4-.62-2.07-1-1.32-.75-2-1.17-1.24-.88-1.84-1.37-1-.87-1.49-1.34a17.53,17.53,0,0,1,32.55,0Z"/></g></g></svg>