<svg xmlns="http://www.w3.org/2000/svg" viewBox="0 0 34.67 42.11"><defs><style>.cls-1{fill:#9ea4d9;}</style></defs><g id="Layer_2" data-name="Layer 2"><g id="Layer_1-2" data-name="Layer 1"><path class="cls-1" d="M26.14,42.11H1.21A1.81,1.81,0,0,1,0,40.31Q0,24.46,0,8.6a1.61,1.61,0,0,1,1.8-1.8H25.54a1.86,1.86,0,0,1,1.27.36,1.81,1.81,0,0,1,.57,1.48q0,15.72,0,31.46A1.86,1.86,0,0,1,26.14,42.11ZM14,15.63c-2.14,0-4.28,0-6.42,0a1.36,1.36,0,1,0,0,2.71q6.4,0,12.83,0a1.6,1.6,0,0,0,.77-.22,1.31,1.31,0,0,0,.57-1.5,1.33,1.33,0,0,0-1.31-1C18.24,15.62,16.1,15.63,14,15.63Zm0,13.57h6.29a1.87,1.87,0,0,0,.53-.05,1.34,1.34,0,0,0,1-1.46,1.37,1.37,0,0,0-1.43-1.2H7.6a1.36,1.36,0,1,0,0,2.71Zm0-5.43h6.38a1.36,1.36,0,1,0,0-2.71H7.58a1.36,1.36,0,1,0,0,2.71Z"/><path class="cls-1" d="M30.09,38V8.58a4.26,4.26,0,0,0-3.16-4.33,6.28,6.28,0,0,0-1.5-.17H4.59a3.7,3.7,0,0,1,1-2.67A4.33,4.33,0,0,1,8.94,0h21.3a4.23,4.23,0,0,1,4.15,2.73,4.6,4.6,0,0,1,.26,1.56c0,9.82,0,19.63,0,29.45A4.21,4.21,0,0,1,30.09,38Z"/></g></g></svg>